ffmpeg started on 2025-02-27 at 04:39:52
Report written to "results/2025-02-27-01-37-27/1080p/decode_1080p_h265/logs/51.log"
Log level: 32
Command line:
"D:\\ffmpeg-7.1-full_build-shared\\bin\\ffmpeg.exe" -i videos/converted/1080p_H.265.mp4 -loglevel quiet -f null NUL
ffmpeg version 7.1-full_build-www.gyan.dev Copyright (c) 2000-2024 the FFmpeg developers
  built with gcc 14.2.0 (Rev1, Built by MSYS2 project)
  configuration: --enable-gpl --enable-version3 --enable-shared --disable-w32threads --disable-autodetect --enable-fontconfig --enable-iconv --enable-gnutls --enable-libxml2 --enable-gmp --enable-bzlib --enable-lzma --enable-libsnappy --enable-zlib --enable-librist --enable-libsrt --enable-libssh --enable-libzmq --enable-avisynth --enable-libbluray --enable-libcaca --enable-sdl2 --enable-libaribb24 --enable-libaribcaption --enable-libdav1d --enable-libdavs2 --enable-libopenjpeg --enable-libquirc --enable-libuavs3d --enable-libxevd --enable-libzvbi --enable-libqrencode --enable-librav1e --enable-libsvtav1 --enable-libvvenc --enable-libwebp --enable-libx264 --enable-libx265 --enable-libxavs2 --enable-libxeve --enable-libxvid --enable-libaom --enable-libjxl --enable-libvpx --enable-mediafoundation --enable-libass --enable-frei0r --enable-libfreetype --enable-libfribidi --enable-libharfbuzz --enable-liblensfun --enable-libvidstab --enable-libvmaf --enable-libzimg --enable-amf --enable-cuda-llvm --enable-cuvid --  libavutil      59. 39.100 / 59. 39.100
  libavcodec     61. 19.100 / 61. 19.100
  libavformat    61.  7.100 / 61.  7.100
  libavdevice    61.  3.100 / 61.  3.100
  libavfilter    10.  4.100 / 10.  4.100
  libswscale      8.  3.100 /  8.  3.100
  libswresample   5.  3.100 /  5.  3.100
  libpostproc    58.  3.100 / 58.  3.100
Input #0, mov,mp4,m4a,3gp,3g2,mj2, from 'videos/converted/1080p_H.265.mp4':
  Metadata:
    major_brand     : isom
    minor_version   : 512
    compatible_brands: isomiso2mp41
    title           : Combining Einstein's Theory with Quantum Mechanics | TU Delft Quantum researchers highlighted
    artist          : TU Delft
    date            : 20240903
    encoder         : Lavf61.7.100
    comment         : https://www.youtube.com/watch?v=rlVE2fivjs4
    description     : Join Professor Gary Steele from the Quantum Nanoscience department at TU Delft as he shares his passion for experimental physics. 
                    : 
                    : In his lab, Gary Steele explores the fascinating intersection of Einstein's theory of general relativity and quantum mechanics. The technologies being developed in his lab range from ultrasensitive detectors to innovative qubits for quantum computers. Lea
                    : 
                    : Timestamps
                    : 00:00:00 Meet Gary Steele: Professor of Physics at Delft University of Technology
                    : 00:00:17 Exploring Tiny Drums 
                    : 00:00:31 The Goal: Unraveling Mysteries of the Universe
                    : 00:00:47 Borrowing tricks from the Quantum Computer
                    : 00:01:05 Gary Steele's Passion for Experimental Physics
                    : 
                    : More information
                    : - More about this research: https://edu.nl/rrakt
                    : - More about Gary Steele: https://edu.nl/v9tke
                    : - More about Digital Society research at TU Delft: https://edu.nl/qdgkd
                    : - More about the Faculty Applied Sciences at TU Delft: https://edu.nl/pq3kc
                    : 
                    : Social Media Channels of TU Delft
                    : - Instagram: https://edu.nl/upny4
                    : - LinkedIn: https://edu.nl/cb3y8
                    : - X: https://edu.nl/drfmj
                    : - Facebook: https://edu.nl/nkvhj
    synopsis        : Join Professor Gary Steele from the Quantum Nanoscience department at TU Delft as he shares his passion for experimental physics. 
                    : 
                    : In his lab, Gary Steele explores the fascinating intersection of Einstein's theory of general relativity and quantum mechanics. The technologies being developed in his lab range from ultrasensitive detectors to innovative qubits for quantum computers. Lea
                    : 
                    : Timestamps
                    : 00:00:00 Meet Gary Steele: Professor of Physics at Delft University of Technology
                    : 00:00:17 Exploring Tiny Drums 
                    : 00:00:31 The Goal: Unraveling Mysteries of the Universe
                    : 00:00:47 Borrowing tricks from the Quantum Computer
                    : 00:01:05 Gary Steele's Passion for Experimental Physics
                    : 
                    : More information
                    : - More about this research: https://edu.nl/rrakt
                    : - More about Gary Steele: https://edu.nl/v9tke
                    : - More about Digital Society research at TU Delft: https://edu.nl/qdgkd
                    : - More about the Faculty Applied Sciences at TU Delft: https://edu.nl/pq3kc
                    : 
                    : Social Media Channels of TU Delft
                    : - Instagram: https://edu.nl/upny4
                    : - LinkedIn: https://edu.nl/cb3y8
                    : - X: https://edu.nl/drfmj
                    : - Facebook: https://edu.nl/nkvhj
  Duration: 00:01:44.22, start: 0.000000, bitrate: 1856 kb/s
  Chapters:
    Chapter #0:0: start 0.000000, end 17.000000
      Metadata:
        title           : Meet Gary Steele: Professor of Physics at Delft University of Technology
    Chapter #0:1: start 17.000000, end 31.000000
      Metadata:
        title           : Exploring Tiny Drums
    Chapter #0:2: start 31.000000, end 47.000000
      Metadata:
        title           : The Goal: Unraveling Mysteries of the Universe
    Chapter #0:3: start 47.000000, end 65.000000
      Metadata:
        title           : Borrowing tricks from the Quantum Computer
    Chapter #0:4: start 65.000000, end 104.000000
      Metadata:
        title           : Gary Steele's Passion for Experimental Physics
  Stream #0:0[0x1](und): Video: hevc (Main) (hev1 / 0x31766568), yuv420p(tv, bt709, progressive), 1920x1080, 1720 kb/s, 25 fps, 25 tbr, 12800 tbn (default)
      Metadata:
        handler_name    : ISO Media file produced by Google Inc. Created on: 02/24/2025.
        vendor_id       : [0][0][0][0]
        encoder         : Lavc61.19.100 libx265
  Stream #0:1[0x2](eng): Audio: aac (LC) (mp4a / 0x6134706D), 48000 Hz, stereo, fltp, 129 kb/s (default)
      Metadata:
        handler_name    : SoundHandler
        vendor_id       : [0][0][0][0]
  Stream #0:2[0x3](eng): Data: bin_data (text / 0x74786574), 0 kb/s
      Metadata:
        handler_name    : SubtitleHandler
Stream mapping:
  Stream #0:0 -> #0:0 (hevc (native) -> wrapped_avframe (native))
  Stream #0:1 -> #0:1 (aac (native) -> pcm_s16le (native))
Press [q] to stop, [?] for help
Output #0, null, to 'NUL':
  Metadata:
    major_brand     : isom
    minor_version   : 512
    compatible_brands: isomiso2mp41
    title           : Combining Einstein's Theory with Quantum Mechanics | TU Delft Quantum researchers highlighted
    artist          : TU Delft
    date            : 20240903
    synopsis        : Join Professor Gary Steele from the Quantum Nanoscience department at TU Delft as he shares his passion for experimental physics. 
                    : 
                    : In his lab, Gary Steele explores the fascinating intersection of Einstein's theory of general relativity and quantum mechanics. The technologies being developed in his lab range from ultrasensitive detectors to innovative qubits for quantum computers. Lea
                    : 
                    : Timestamps
                    : 00:00:00 Meet Gary Steele: Professor of Physics at Delft University of Technology
                    : 00:00:17 Exploring Tiny Drums 
                    : 00:00:31 The Goal: Unraveling Mysteries of the Universe
                    : 00:00:47 Borrowing tricks from the Quantum Computer
                    : 00:01:05 Gary Steele's Passion for Experimental Physics
                    : 
                    : More information
                    : - More about this research: https://edu.nl/rrakt
                    : - More about Gary Steele: https://edu.nl/v9tke
                    : - More about Digital Society research at TU Delft: https://edu.nl/qdgkd
                    : - More about the Faculty Applied Sciences at TU Delft: https://edu.nl/pq3kc
                    : 
                    : Social Media Channels of TU Delft
                    : - Instagram: https://edu.nl/upny4
                    : - LinkedIn: https://edu.nl/cb3y8
                    : - X: https://edu.nl/drfmj
                    : - Facebook: https://edu.nl/nkvhj
    comment         : https://www.youtube.com/watch?v=rlVE2fivjs4
    description     : Join Professor Gary Steele from the Quantum Nanoscience department at TU Delft as he shares his passion for experimental physics. 
                    : 
                    : In his lab, Gary Steele explores the fascinating intersection of Einstein's theory of general relativity and quantum mechanics. The technologies being developed in his lab range from ultrasensitive detectors to innovative qubits for quantum computers. Lea
                    : 
                    : Timestamps
                    : 00:00:00 Meet Gary Steele: Professor of Physics at Delft University of Technology
                    : 00:00:17 Exploring Tiny Drums 
                    : 00:00:31 The Goal: Unraveling Mysteries of the Universe
                    : 00:00:47 Borrowing tricks from the Quantum Computer
                    : 00:01:05 Gary Steele's Passion for Experimental Physics
                    : 
                    : More information
                    : - More about this research: https://edu.nl/rrakt
                    : - More about Gary Steele: https://edu.nl/v9tke
                    : - More about Digital Society research at TU Delft: https://edu.nl/qdgkd
                    : - More about the Faculty Applied Sciences at TU Delft: https://edu.nl/pq3kc
                    : 
                    : Social Media Channels of TU Delft
                    : - Instagram: https://edu.nl/upny4
                    : - LinkedIn: https://edu.nl/cb3y8
                    : - X: https://edu.nl/drfmj
                    : - Facebook: https://edu.nl/nkvhj
    encoder         : Lavf61.7.100
  Chapters:
    Chapter #0:0: start 0.000000, end 17.000000
      Metadata:
        title           : Meet Gary Steele: Professor of Physics at Delft University of Technology
    Chapter #0:1: start 17.000000, end 31.000000
      Metadata:
        title           : Exploring Tiny Drums
    Chapter #0:2: start 31.000000, end 47.000000
      Metadata:
        title           : The Goal: Unraveling Mysteries of the Universe
    Chapter #0:3: start 47.000000, end 65.000000
      Metadata:
        title           : Borrowing tricks from the Quantum Computer
    Chapter #0:4: start 65.000000, end 104.000000
      Metadata:
        title           : Gary Steele's Passion for Experimental Physics
  Stream #0:0(und): Video: wrapped_avframe, yuv420p(tv, bt709, progressive), 1920x1080, q=2-31, 200 kb/s, 25 fps, 25 tbn (default)
      Metadata:
        handler_name    : ISO Media file produced by Google Inc. Created on: 02/24/2025.
        vendor_id       : [0][0][0][0]
        encoder         : Lavc61.19.100 wrapped_avframe
  Stream #0:1(eng): Audio: pcm_s16le, 48000 Hz, stereo, s16, 1536 kb/s (default)
      Metadata:
        handler_name    : SoundHandler
        vendor_id       : [0][0][0][0]
        encoder         : Lavc61.19.100 pcm_s16le
frame=   95 fps=0.0 q=-0.0 size=N/A time=00:00:03.76 bitrate=N/A speed=7.46x    frame=  170 fps=166 q=-0.0 size=N/A time=00:00:06.80 bitrate=N/A speed=6.66x    frame=  224 fps=145 q=-0.0 size=N/A time=00:00:08.96 bitrate=N/A speed=5.81x    frame=  330 fps=160 q=-0.0 size=N/A time=00:00:13.20 bitrate=N/A speed= 6.4x    frame=  447 fps=173 q=-0.0 size=N/A time=00:00:17.88 bitrate=N/A speed=6.93x    frame=  565 fps=182 q=-0.0 size=N/A time=00:00:22.56 bitrate=N/A speed=7.27x    frame=  696 fps=191 q=-0.0 size=N/A time=00:00:27.84 bitrate=N/A speed=7.65x    frame=  783 fps=188 q=-0.0 size=N/A time=00:00:31.32 bitrate=N/A speed=7.53x    frame=  905 fps=194 q=-0.0 size=N/A time=00:00:36.20 bitrate=N/A speed=7.76x    frame= 1035 fps=200 q=-0.0 size=N/A time=00:00:41.40 bitrate=N/A speed=7.98x    frame= 1110 fps=195 q=-0.0 size=N/A time=00:00:44.40 bitrate=N/A speed= 7.8x    frame= 1172 fps=189 q=-0.0 size=N/A time=00:00:46.88 bitrate=N/A speed=7.55x    frame= 1235 fps=184 q=-0.0 size=N/A time=00:00:49.40 bitrate=N/A speed=7.35x    frame= 1324 fps=183 q=-0.0 size=N/A time=00:00:52.96 bitrate=N/A speed=7.32x    frame= 1457 fps=188 q=-0.0 size=N/A time=00:00:58.24 bitrate=N/A speed= 7.5x    frame= 1574 fps=190 q=-0.0 size=N/A time=00:01:02.96 bitrate=N/A speed= 7.6x    frame= 1671 fps=190 q=-0.0 size=N/A time=00:01:06.84 bitrate=N/A speed= 7.6x    frame= 1751 fps=188 q=-0.0 size=N/A time=00:01:10.04 bitrate=N/A speed=7.52x    frame= 1856 fps=189 q=-0.0 size=N/A time=00:01:14.24 bitrate=N/A speed=7.55x    frame= 1976 fps=191 q=-0.0 size=N/A time=00:01:19.04 bitrate=N/A speed=7.63x    frame= 2072 fps=190 q=-0.0 size=N/A time=00:01:22.88 bitrate=N/A speed=7.62x    frame= 2185 fps=192 q=-0.0 size=N/A time=00:01:27.40 bitrate=N/A speed=7.67x    frame= 2326 fps=195 q=-0.0 size=N/A time=00:01:33.00 bitrate=N/A speed=7.81x    frame= 2431 fps=196 q=-0.0 size=N/A time=00:01:37.24 bitrate=N/A speed=7.83x    frame= 2600 fps=201 q=-0.0 size=N/A time=00:01:44.00 bitrate=N/A speed=8.04x    [out#0/null @ 00000227e6e0c700] video:1119KiB audio:19545KiB subtitle:0KiB other streams:0KiB global headers:0KiB muxing overhead: unknown
frame= 2605 fps=201 q=-0.0 Lsize=N/A time=00:01:44.20 bitrate=N/A speed=8.05x    
